<?xml version="1.0" encoding="UTF-8" standalone="no"?>
<!-- Created with Inkscape (http://www.inkscape.org/) -->

<svg
   xmlns:dc="http://purl.org/dc/elements/1.1/"
   xmlns:cc="http://creativecommons.org/ns#"
   xmlns:rdf="http://www.w3.org/1999/02/22-rdf-syntax-ns#"
   xmlns:svg="http://www.w3.org/2000/svg"
   xmlns="http://www.w3.org/2000/svg"
   xmlns:sodipodi="http://sodipodi.sourceforge.net/DTD/sodipodi-0.dtd"
   xmlns:inkscape="http://www.inkscape.org/namespaces/inkscape"
   width="193.65277mm"
   height="32.207199mm"
   viewBox="0 0 193.65277 32.207199"
   version="1.1"
   id="svg2815"
   inkscape:version="0.92.2 2405546, 2018-03-11"
   sodipodi:docname="text.svg">
  <sodipodi:namedview
     id="base"
     pagecolor="#ffffff"
     bordercolor="#666666"
     borderopacity="1.0"
     inkscape:pageopacity="0.0"
     inkscape:pageshadow="2"
     inkscape:zoom="0.7"
     inkscape:cx="-51.730153"
     inkscape:cy="412.01814"
     inkscape:document-units="mm"
     inkscape:current-layer="text832"
     showgrid="false"
     inkscape:window-width="1920"
     inkscape:window-height="1012"
     inkscape:window-x="0"
     inkscape:window-y="0"
     inkscape:window-maximized="1"
     showguides="true"
     inkscape:guide-bbox="true"
     fit-margin-top="0"
     fit-margin-left="0"
     fit-margin-right="0"
     fit-margin-bottom="0">
    <sodipodi:guide
       inkscape:locked="false"
       id="guide834"
       orientation="0,1"
       position="-16.698744,36.898161" />
    <sodipodi:guide
       inkscape:locked="false"
       id="guide836"
       orientation="0,1"
       position="-46.113096,-3.4017858" />
  </sodipodi:namedview>
  <defs
     id="defs2809" />
  <metadata
     id="metadata2812">
    <rdf:RDF>
      <cc:Work
         rdf:about="">
        <dc:format>image/svg+xml</dc:format>
        <dc:type
           rdf:resource="http://purl.org/dc/dcmitype/StillImage" />
        <dc:title />
      </cc:Work>
    </rdf:RDF>
  </metadata>
  <g
     id="layer1"
     inkscape:groupmode="layer"
     inkscape:label="Layer 1"
     transform="translate(-155.79397,-78.685002)">
    <g
       aria-label="PIXAGEN"
       style="font-style:normal;font-variant:normal;font-weight:normal;font-stretch:normal;font-size:68.11051941px;line-height:1.25;font-family:Calibre;-inkscape-font-specification:Calibre;letter-spacing:0px;word-spacing:0px;fill:#000000;fill-opacity:1;stroke:none;stroke-width:1.70276296"
       id="text832">
      <path
         d="m 171.18637,100.6814 c 7.366,0 13.3096,-4.419599 13.3096,-12.293599 0,-5.9436 -3.8608,-9.194799 -10.2108,-9.194799 h -13.0048 l -5.4864,31.191198 h 8.0772 l 1.6764,-9.7028 z m -3.048,-14.630399 h 4.6228 c 2.6416,0 3.7592,1.27 3.7592,3.2004 0,2.8448 -1.8796,4.6228 -4.9784,4.6228 h -4.7244 z"
         style="font-style:italic;font-variant:normal;font-weight:bold;font-stretch:normal;font-size:50.79999924px;font-family:Calibre;-inkscape-font-specification:'Calibre Bold Italic';fill:#7b7292;fill-opacity:1;stroke-width:1.70276296"
         id="path819"
         inkscape:connector-curvature="0" />
      <path
         d="m 197.83574,79.193002 h -8.1788 l -5.4864,31.191198 h 8.1788 z"
         style="font-style:italic;font-variant:normal;font-weight:bold;font-stretch:normal;font-size:50.79999924px;font-family:Calibre;-inkscape-font-specification:'Calibre Bold Italic';fill:#7b7292;fill-opacity:1;stroke-width:1.70276296"
         id="path821"
         inkscape:connector-curvature="0" />
      <path
         d="m 230.29217,79.193002 h -9.0424 l -7.5184,8.889999 -4.064,-8.889999 h -8.4328 l 7.112,14.935199 -13.9192,16.255999 h 9.0424 l 8.128,-9.652 4.4704,9.652 h 8.4836 l -7.5184,-15.697199 z"
         style="font-style:italic;font-variant:normal;font-weight:bold;font-stretch:normal;font-size:50.79999924px;font-family:Calibre;-inkscape-font-specification:'Calibre Bold Italic';fill:#7b7292;fill-opacity:1;stroke-width:1.70276296"
         id="path823"
         inkscape:connector-curvature="0" />
      <path
         d="m 243.17791,79.193002 -17.6784,31.191198 h 8.128 l 3.3528,-6.0452 h 11.3792 l 1.1176,6.0452 h 8.0772 l -6.0452,-31.191198 z m 2.4384,9.651999 1.5748,8.7884 h -6.5024 z"
         style="font-style:italic;font-variant:normal;font-weight:bold;font-stretch:normal;font-size:50.79999924px;font-family:Calibre;-inkscape-font-specification:'Calibre Bold Italic';fill:#7b7292;fill-opacity:1;stroke-width:1.70276296"
         id="path825"
         inkscape:connector-curvature="0" />
      <path
         d="m 273.98176,110.8922 c 7.7724,0 13.5128,-5.2832 14.7828,-12.750799 l 0.762,-4.4196 h -12.9032 l -1.0668,6.096 h 4.7244 c -0.8636,2.285999 -3.1496,3.911599 -6.0452,3.911599 -3.8608,0 -6.1976,-2.8956 -6.1976,-7.213599 0,-6.1976 3.2004,-10.668 8.0772,-10.668 2.794,0 4.572,1.4732 5.0292,3.7592 h 8.128 c -0.4572,-6.2992 -5.08,-10.921999 -12.9032,-10.921999 -9.652,0 -16.5608,8.127999 -16.5608,18.033999 0,8.331199 5.4864,14.173199 14.1732,14.173199 z"
         style="font-style:italic;font-variant:normal;font-weight:bold;font-stretch:normal;font-size:50.79999924px;font-family:Calibre;-inkscape-font-specification:'Calibre Bold Italic';fill:#7b7292;fill-opacity:1;stroke-width:1.70276296"
         id="path827"
         inkscape:connector-curvature="0" />
      <path
         d="m 295.62257,79.193002 -5.4864,31.191198 h 22.352 l 1.2192,-7.0612 h -14.2748 l 0.9144,-5.384799 h 13.0556 l 1.1684,-6.858 h -13.0048 l 0.8636,-4.8768 h 14.3256 l 1.2192,-7.010399 z"
         style="font-style:italic;font-variant:normal;font-weight:bold;font-stretch:normal;font-size:50.79999924px;font-family:Calibre;-inkscape-font-specification:'Calibre Bold Italic';fill:#7b7292;fill-opacity:1;stroke-width:1.70276296"
         id="path829"
         inkscape:connector-curvature="0" />
      <path
         d="m 349.44675,79.193002 h -7.874 l -3.1496,17.729199 -9.0932,-17.729199 h -7.3152 l -5.4864,31.191198 h 7.874 l 3.302,-18.795999 9.9568,18.795999 h 6.2992 z"
         style="font-style:italic;font-variant:normal;font-weight:bold;font-stretch:normal;font-size:50.79999924px;font-family:Calibre;-inkscape-font-specification:'Calibre Bold Italic';fill:#7b7292;fill-opacity:1;stroke-width:1.70276296"
         id="path831"
         inkscape:connector-curvature="0" />
    </g>
  </g>
</svg>
